<svg class="c-logo js-logo c-header__logo-svg" xmlns="http://www.w3.org/2000/svg">
    <g>
    <g data-name="Logo Globerce">
        <g data-name="Group 1">
        <path class="c-logo__line" data-name="Path 3" d="M18.18,38.24a18.24,18.24,0,0,1,.06-36.48H19a17.09,17.09,0,0,1,2.66.32,2,2,0,1,1-.65,4l-.11,0a14.18,14.18,0,0,0-5.21,27.88,15.25,15.25,0,0,0,2.52.24A14.15,14.15,0,0,0,32.3,20.92a2,2,0,0,1,2-1.89h.13a2,2,0,0,1,1.88,2.15h0A18.22,18.22,0,0,1,28,35.35a18,18,0,0,1-9.78,2.89"></path>
        <circle class="c-logo__dot" data-name="Ellipse 7" cx="26.81" cy="19.12" r="2.49"></circle>
        </g>
    </g>
    <g data-name="Group 1">
        <g style="isolation:isolate">
        <g style="isolation:isolate">
            <path class="c-logo__line" d="M40.9,10.36h3.76V26.24c0,1.67.57,2.09,1.55,2.09a4,4,0,0,0,.57,0v3.31a9.85,9.85,0,0,1-1.19.09c-2.09,0-4.69-.54-4.69-4.89Z"></path>
            <path class="c-logo__line" d="M57.82,16c4.66,0,8.39,3.32,8.39,8s-3.73,8-8.36,8-8.36-3.28-8.36-8A8,8,0,0,1,57.82,16Zm0,12.72a4.53,4.53,0,0,0,4.54-4.75,4.53,4.53,0,1,0-9,0A4.51,4.51,0,0,0,57.85,28.69Z"></path>
            <path class="c-logo__line" d="M70.23,10.36H74V17a8.62,8.62,0,0,1-.09,1.28H74A5.58,5.58,0,0,1,78.59,16c4.12,0,6.74,3.26,6.74,8s-3,8-7,8a5.48,5.48,0,0,1-4.59-2.36H73.7a8,8,0,0,1,.06,1v1H70.23Zm7.46,18.36c2.09,0,3.82-1.7,3.82-4.72S80,19.23,77.75,19.23c-2,0-3.85,1.43-3.85,4.8C73.9,26.39,75.16,28.72,77.69,28.72Z"></path>
            <path class="c-logo__line" d="M96.29,16c4.35,0,6.74,3.2,6.74,7.23a12.14,12.14,0,0,1-.12,1.46H92.44a4.31,4.31,0,0,0,4.56,4A7.23,7.23,0,0,0,101.36,27l1.49,2.71a9.65,9.65,0,0,1-6.12,2.18,7.82,7.82,0,0,1-8.2-8C88.53,19.26,91.72,16,96.29,16Zm2.95,6.09a3,3,0,0,0-3-3.22,3.64,3.64,0,0,0-3.67,3.22Z"></path>
            <path class="c-logo__line" d="M107.09,16.33h3.64V19a9.41,9.41,0,0,1-.06,1h.06a5.32,5.32,0,0,1,4.83-3.94,5.83,5.83,0,0,1,.72.06v3.73a6.84,6.84,0,0,0-.93-.06c-3.1,0-4.47,2.69-4.47,5.55v6.15h-3.79Z"></path>
            <path class="c-logo__line" d="M126.81,16a8.08,8.08,0,0,1,5.85,2.27l-1.7,2.6A5.75,5.75,0,0,0,127,19.2a4.52,4.52,0,0,0-4.62,4.71,4.62,4.62,0,0,0,4.74,4.78,6.87,6.87,0,0,0,4.48-1.94l1.46,2.68a8.79,8.79,0,0,1-6.27,2.48c-5,0-8.26-3.55-8.26-8A7.87,7.87,0,0,1,126.81,16Z"></path>
            <path class="c-logo__line" d="M143.26,16c4.35,0,6.74,3.2,6.74,7.23a12.14,12.14,0,0,1-.12,1.46H139.41a4.31,4.31,0,0,0,4.56,4A7.23,7.23,0,0,0,148.33,27l1.49,2.71a9.65,9.65,0,0,1-6.12,2.18,7.82,7.82,0,0,1-8.2-8C135.5,19.26,138.69,16,143.26,16Zm3,6.09a3,3,0,0,0-3-3.22,3.64,3.64,0,0,0-3.67,3.22Z"></path>
        </g>
        </g>
    </g>
    </g>
</svg>